<svg xmlns="http://www.w3.org/2000/svg" version="1.1" xmlns:xlink="http://www.w3.org/1999/xlink" xmlns:svgjs="http://svgjs.dev/svgjs" width="1000" height="623" viewBox="0 0 1000 623"><g transform="matrix(1,0,0,1,-0.6060606060606233,0.2522267206479114)"><svg viewBox="0 0 396 247" data-background-color="#1b4571" preserveAspectRatio="xMidYMid meet" height="623" width="1000" xmlns="http://www.w3.org/2000/svg" xmlns:xlink="http://www.w3.org/1999/xlink"><g id="tight-bounds" transform="matrix(1,0,0,1,0.2400000000000091,-0.0999999999999659)"><svg viewBox="0 0 395.52 247.2" height="247.2" width="395.52"><g><svg></svg></g><g><svg viewBox="0 0 395.52 247.2" height="247.2" width="395.52"><mask id="4764eec6-f3c1-47bd-a8fb-c080a8c65742"><rect width="395.52" height="247.2" fill="white"></rect><g transform="matrix(1,0,0,1,0,78.84397212794605)" id="clone"><svg viewBox="0 0 395.52 89.51205574410788" height="89.51205574410788" width="395.52"><g><svg viewBox="0 0 395.52 89.51205574410788" height="89.51205574410788" width="395.52"><g><svg viewBox="0 0 486.38365541990856 110.07585173182093" height="89.51205574410788" width="395.52"><g transform="matrix(1,0,0,1,90.86365541990857,0)"><svg viewBox="0 0 395.52 110.07585173182093" height="110.07585173182093" width="395.52"><g id="SvgjsG4542"><svg viewBox="0 0 395.52 110.07585173182093" height="110.07585173182093" width="395.52" id="SvgjsSvg4541"><g><svg viewBox="0 0 395.52 110.07585173182093" height="110.07585173182093" width="395.52"><g transform="matrix(1,0,0,1,0,0)"><svg width="395.52" viewBox="-1.399999976158142 -46.75 247.8199920654297 69.70000076293945" height="110.07585173182093" data-palette-color="#ffffff"><path d="M23-18.8L21-18.8 19.05-12.2 22.9-12.2Q23.5-12.2 24.15-12.28 24.8-12.35 25.05-12.35L25.05-12.35Q25.5-12.35 25.5-12.05L25.5-12.05Q25.5-11.65 24.93-11.13 24.35-10.6 23.4-10.23 22.45-9.85 21.4-9.85L21.4-9.85 18.35-9.85 16.35-3.2Q15.8-1.45 14.88-0.48 13.95 0.5 13 0.5L13 0.5Q12.6 0.5 12.6 0.2L12.6 0.2Q12.6 0 12.75-0.4 12.9-0.8 13.1-1.35L13.1-1.35 15.6-9.85 9.65-9.85 7.7-3.2Q7.15-1.45 6.2-0.48 5.25 0.5 4.35 0.5L4.35 0.5Q3.9 0.5 3.9 0.2L3.9 0.2Q3.9 0.05 4.05-0.33 4.2-0.7 4.4-1.35L4.4-1.35 6.95-9.85 4.2-9.85Q3.3-9.85 2.78-9.8 2.25-9.75 2.05-9.75L2.05-9.75Q1.75-9.75 1.68-9.83 1.6-9.9 1.6-10.05L1.6-10.05Q1.6-10.45 2.18-10.95 2.75-11.45 3.7-11.83 4.65-12.2 5.7-12.2L5.7-12.2 7.65-12.2 9.6-18.8 5.85-18.8Q5.25-18.8 4.6-18.73 3.95-18.65 3.65-18.65L3.65-18.65Q3.2-18.65 3.2-18.95L3.2-18.95Q3.2-19.35 3.78-19.88 4.35-20.4 5.3-20.78 6.25-21.15 7.3-21.15L7.3-21.15 10.3-21.15 12.35-28Q12.9-29.8 13.83-30.78 14.75-31.75 15.7-31.75L15.7-31.75Q16.1-31.75 16.1-31.45L16.1-31.45Q16.1-31.25 15.95-30.85 15.8-30.45 15.6-29.9L15.6-29.9 13-21.15 18.95-21.15 21-28Q21.55-29.8 22.5-30.78 23.45-31.75 24.35-31.75L24.35-31.75Q24.8-31.75 24.8-31.45L24.8-31.45Q24.8-31.25 24.63-30.83 24.45-30.4 24.3-29.9L24.3-29.9 21.7-21.15 24.5-21.15Q25.4-21.15 25.93-21.2 26.45-21.25 26.65-21.25L26.65-21.25Q27.15-21.25 27.15-20.95L27.15-20.95Q27.15-20.55 26.55-20.05 25.95-19.55 25-19.18 24.05-18.8 23-18.8L23-18.8ZM16.3-12.2L18.25-18.8 12.3-18.8 10.35-12.2 16.3-12.2ZM34.7 0.5Q32.45 0.5 30.85-0.43 29.25-1.35 28.42-2.65 27.6-3.95 27.5-5.1L27.5-5.1Q27.5-6.1 28.05-7.15 28.6-8.2 29.35-8.9 30.1-9.6 30.5-9.6L30.5-9.6Q30.75-9.6 30.75-9.3L30.75-9.3Q31-6.55 32.25-4.28 33.5-2 36.75-2L36.75-2Q39.35-2 40.9-3.6 42.45-5.2 42.45-8.05L42.45-8.05Q42.45-9.75 41.8-11.2 41.15-12.65 39.65-14.45L39.65-14.45 34.75-20.25Q33.95-21.3 33.5-22.43 33.05-23.55 33.05-25.15L33.05-25.15Q33.05-27.75 34.25-30.05 35.45-32.35 37.75-33.77 40.05-35.2 43.1-35.2L43.1-35.2Q45.6-35.2 47.2-34.18 48.8-33.15 48.8-31.25L48.8-31.25Q48.8-29.8 47.6-27.9L47.6-27.9Q47.15-27.15 46.6-27.15L46.6-27.15Q46.2-27.15 46.07-27.53 45.95-27.9 45.85-28.9L45.85-28.9Q45.7-32.9 41.55-32.9L41.55-32.9Q39.05-32.9 37.65-31.63 36.25-30.35 36.25-28.15L36.25-28.15Q36.25-25.95 38.1-23.7L38.1-23.7 42.9-18.15Q46-14.5 46-10.5L46-10.5Q46-7.6 44.37-5.08 42.75-2.55 40.12-1.03 37.5 0.5 34.7 0.5L34.7 0.5ZM52.7 0.5Q50.15 0.5 50.15-4.35L50.15-4.35Q50.15-9 52.17-13.53 54.2-18.05 57.65-20.93 61.09-23.8 65.09-23.8L65.09-23.8Q67.15-23.8 68.65-23.15L68.65-23.15Q68-20.6 67.75-19.4L67.75-19.4 66.7-14Q65.3-7.6 65-5.15L65-5.15Q64.95-4.8 64.95-4.3L64.95-4.3Q64.95-3.2 65.59-3.2L65.59-3.2Q66.4-3.2 67.09-4.23 67.8-5.25 68.7-7.15L68.7-7.15Q68.75-7.2 68.87-7.45 69-7.7 69.2-7.7L69.2-7.7Q69.5-7.7 69.5-7.1L69.5-7.1 69.4-6.3Q69.05-4.65 67.97-3.05 66.9-1.45 65.57-0.48 64.25 0.5 63.2 0.5L63.2 0.5Q61.45 0.5 61.45-2.35L61.45-2.35Q61.45-3.45 61.7-4.6L61.7-4.6 62.55-8.95 62.5-8.95Q60.09-4.75 57.37-2.13 54.65 0.5 52.7 0.5L52.7 0.5ZM55.05-3.6Q56.45-3.6 58.27-5.78 60.09-7.95 61.67-11.1 63.25-14.25 63.84-16.75L63.84-16.75 64.65-19.95Q63.15-20.95 61.5-20.95L61.5-20.95Q59.34-20.95 57.57-18.48 55.8-16 54.8-12.48 53.8-8.95 53.8-6.1L53.8-6.1Q53.8-4.85 54.07-4.23 54.34-3.6 55.05-3.6L55.05-3.6ZM65.34 19.95Q64.64 19.95 64.17 19.78 63.69 19.6 63.14 19.05L63.14 19.05Q62.19 18.1 62.19 17.5L62.19 17.5Q62.19 17.25 62.59 17.25L62.59 17.25Q63.14 17.25 63.79 17.4L63.79 17.4Q65.79 17.75 66.79 17.75L66.79 17.75Q68.94 17.75 70.32 16.55 71.69 15.35 72.57 12.78 73.44 10.2 74.09 5.75L74.09 5.75 77.99-20.35 75.34-20.35Q73.94-20.35 73.24-20.03 72.54-19.7 72.44-19.7L72.44-19.7Q72.14-19.7 72.14-20.1L72.14-20.1Q72.14-20.55 72.44-21L72.44-21Q73.04-22 74.04-22.65 75.04-23.3 76.34-23.3L76.34-23.3 78.44-23.3 78.49-23.85Q79.49-29.1 80.77-32.83 82.04-36.55 84.19-39.25L84.19-39.25Q85.99-41.5 87.64-42.25 89.29-43 91.34-43.35L91.34-43.35Q92.44-43.55 92.84-43.65 93.24-43.75 93.39-43.75L93.39-43.75Q93.64-43.75 93.64-43.5L93.64-43.5Q93.64-42.9 92.64-41.95L92.64-41.95Q92.14-41.4 91.72-41.25 91.29-41.1 90.54-41.1L90.54-41.1Q89.09-41.05 87.99-40.43 86.89-39.8 85.94-38.5L85.94-38.5Q84.49-36.4 83.64-33.02 82.79-29.65 81.99-24.85L81.99-24.85 81.74-23.3 84.44-23.3Q85.79-23.3 86.52-23.63 87.24-23.95 87.39-23.95L87.39-23.95Q87.69-23.95 87.69-23.55L87.69-23.55Q87.69-23.25 87.39-22.65L87.39-22.65Q85.99-20.35 83.49-20.35L83.49-20.35 81.34-20.35 77.94 2.75Q75.34 19.95 65.34 19.95L65.34 19.95ZM91.34 0.5Q89.09 0.5 87.77-1.23 86.44-2.95 86.44-6L86.44-6Q86.44-9.7 88.22-13.93 89.99-18.15 92.79-20.98 95.59-23.8 98.44-23.8L98.44-23.8Q101.04-23.8 101.04-20.65L101.04-20.65Q101.04-18.1 99.54-15.65 98.04-13.2 95.52-11.33 92.99-9.45 89.99-8.45L89.99-8.45Q89.99-5.75 90.87-4.55 91.74-3.35 93.44-3.35L93.44-3.35Q95.24-3.35 96.74-4.5 98.24-5.65 99.29-7.65L99.29-7.65Q99.44-7.95 99.59-8.15 99.74-8.35 99.99-8.35L99.99-8.35Q100.39-8.35 100.39-7.75L100.39-7.75Q100.39-6.4 99.04-4.4 97.69-2.4 95.59-0.95 93.49 0.5 91.34 0.5L91.34 0.5ZM91.59-11.1Q92.89-11.1 94.37-12.03 95.84-12.95 96.84-14.55 97.84-16.15 97.84-18.15L97.84-18.15Q97.84-20.5 96.19-20.5L96.19-20.5Q94.84-20.5 93.62-19.05 92.39-17.6 91.57-15.45 90.74-13.3 90.44-11.3L90.44-11.3Q90.74-11.1 91.59-11.1L91.59-11.1ZM110.69-26.65Q110.19-26.65 110.24-27.15L110.24-27.15 110.84-30.65Q111.09-32.1 111.91-32.88 112.74-33.65 113.99-33.65L113.99-33.65 114.19-33.65Q114.49-33.65 114.56-33.55 114.64-33.45 114.59-33.15L114.59-33.15 114.04-29.7Q113.84-28.3 112.99-27.48 112.14-26.65 110.89-26.65L110.89-26.65 110.69-26.65ZM97.29 19.95Q94.94 19.95 93.39 18.95 91.84 17.95 91.09 16.55 90.34 15.15 90.34 13.95L90.34 13.95Q90.34 12.75 91.11 11.75 91.89 10.75 92.99 10.35L92.99 10.35Q93.29 10.25 93.34 10.25L93.34 10.25Q93.49 10.25 93.54 10.4 93.59 10.55 93.59 10.8L93.59 10.8Q93.79 14.1 95.04 15.93 96.29 17.75 98.74 17.75L98.74 17.75Q100.59 17.75 101.79 16.53 102.99 15.3 103.76 12.73 104.54 10.15 105.24 5.7L105.24 5.7 108.84-17.8Q109.04-19.1 109.04-19.4L109.04-19.4Q109.04-20.15 108.59-20.15L108.59-20.15Q107.99-20.15 107.14-19.2 106.29-18.25 105.29-16.2L105.29-16.2Q105.09-15.6 104.79-15.6L104.79-15.6Q104.49-15.6 104.49-16.1L104.49-16.1Q104.49-17.3 105.56-19.18 106.64-21.05 108.21-22.43 109.79-23.8 111.14-23.8L111.14-23.8Q112.69-23.8 112.69-21.6L112.69-21.6Q112.69-20.55 112.39-18.85L112.39-18.85 109.14 2.75Q107.89 11.2 104.89 15.58 101.89 19.95 97.29 19.95L97.29 19.95ZM120.69 0.5Q118.59 0.5 117.51-1.13 116.44-2.75 116.44-5.65L116.44-5.65Q116.44-9.7 118.39-13.95 120.34-18.2 123.21-21 126.09-23.8 128.69-23.8L128.69-23.8Q130.64-23.8 131.69-22.08 132.74-20.35 132.74-17.55L132.74-17.55Q132.74-13.8 130.91-9.55 129.09-5.3 126.29-2.4 123.49 0.5 120.69 0.5L120.69 0.5ZM123.14-2.8Q124.79-2.8 126.14-4.48 127.49-6.15 128.29-8.93 129.09-11.7 129.09-14.8L129.09-14.8Q129.09-20.5 126.14-20.5L126.14-20.5Q124.29-20.5 122.91-18.5 121.54-16.5 120.81-13.63 120.09-10.75 120.09-8.25L120.09-8.25Q120.09-5.85 120.81-4.33 121.54-2.8 123.14-2.8L123.14-2.8ZM140.33 0.5Q138.23 0.5 138.23-2.65L138.23-2.65Q138.23-4.2 138.73-7.05L138.73-7.05 140.43-17.35Q140.63-19.15 140.63-19.4L140.63-19.4Q140.63-20.15 140.23-20.15L140.23-20.15Q139.08-20.15 137.53-17.15L137.53-17.15Q137.43-16.95 137.21-16.48 136.98-16 136.83-15.88 136.68-15.75 136.53-15.75L136.53-15.75Q136.43-15.75 136.33-15.93 136.23-16.1 136.23-16.35L136.23-16.35Q136.23-17.35 137.26-19.18 138.28-21 139.78-22.4 141.28-23.8 142.63-23.8L142.63-23.8Q143.43-23.8 143.91-23.13 144.38-22.45 144.38-21.3L144.38-21.3Q144.38-20.55 144.28-20.15L144.28-20.15 141.93-5.4Q141.83-4.7 141.83-4.5L141.83-4.5Q141.83-3.45 142.63-3.45L142.63-3.45Q144.28-3.45 146.21-5.68 148.13-7.9 149.61-11 151.08-14.1 151.53-16.45L151.53-16.45 152.23-20.1Q152.63-21.9 153.86-22.85 155.08-23.8 156.13-23.8L156.13-23.8Q156.53-23.8 156.53-23.55L156.53-23.55Q156.53-23.4 156.33-22.98 156.13-22.55 156.03-21.95L156.03-21.95Q155.33-18.85 153.28-7.55L153.28-7.55 152.98-5.95Q152.63-4.2 152.63-3.8L152.63-3.8Q152.63-3.1 153.08-3.1L153.08-3.1Q153.88-3.1 154.86-4.38 155.83-5.65 156.43-7.15L156.43-7.15Q156.73-7.7 156.93-7.7L156.93-7.7Q157.23-7.7 157.23-7.25L157.23-7.25Q157.23-6.7 157.13-6.3L157.13-6.3Q156.78-4.5 155.73-2.95 154.68-1.4 153.38-0.45 152.08 0.5 150.98 0.5L150.98 0.5Q149.03 0.5 149.13-2.6L149.13-2.6Q149.23-3.95 149.73-6.25L149.73-6.25 150.18-8.7 150.13-8.7Q147.53-4.55 144.83-2.02 142.13 0.5 140.33 0.5L140.33 0.5ZM162.23 0.5Q162.03 0.5 161.91 0.43 161.78 0.35 161.78 0.25L161.78 0.25Q161.78 0.1 162.08-0.4 162.38-0.9 162.53-1.8L162.53-1.8Q162.73-2.85 162.88-3.73 163.03-4.6 163.18-5.35L163.18-5.35Q164.43-12.2 164.86-14.93 165.28-17.65 165.23-18.9L165.23-18.9Q165.23-19.55 165.13-19.85 165.03-20.15 164.68-20.15L164.68-20.15Q164.23-20.15 163.53-19.4 162.83-18.65 162.23-17.65L162.23-17.65Q161.98-17.2 161.78-16.88 161.58-16.55 161.46-16.4 161.33-16.25 161.18-16.25L161.18-16.25Q160.98-16.25 160.88-16.4 160.78-16.55 160.78-16.8L160.78-16.8Q160.78-17.75 161.86-19.45 162.93-21.15 164.41-22.48 165.88-23.8 167.03-23.8L167.03-23.8Q167.98-23.8 168.36-23.05 168.73-22.3 168.73-20.7L168.73-20.7Q168.73-18.5 167.78-14.75L167.78-14.75 167.88-14.75Q172.63-23.8 176.68-23.8L176.68-23.8Q177.73-23.8 178.31-23.23 178.88-22.65 178.88-21.6L178.88-21.6Q178.88-20.5 178.41-19.35 177.93-18.2 177.26-17.45 176.58-16.7 176.03-16.7L176.03-16.7Q175.68-16.7 175.78-17.15L175.78-17.15Q175.93-17.85 175.93-18.25L175.93-18.25Q175.93-19.45 174.63-19.45L174.63-19.45Q173.08-19.45 171.53-17.65 169.98-15.85 168.81-13.25 167.63-10.65 167.18-8.5L167.18-8.5Q166.58-6.2 166.43-3.7L166.43-3.7Q166.33-2.75 165.56-1.78 164.78-0.8 163.78-0.15 162.78 0.5 162.23 0.5L162.23 0.5ZM181.43 0.5Q180.98 0.5 180.98 0.2L180.98 0.2Q180.98 0 181.2-0.68 181.43-1.35 181.83-3L181.83-3Q182.83-7.15 184.23-16.85L184.23-16.85Q184.53-18.75 184.53-19.5L184.53-19.5Q184.53-20.15 184.23-20.15L184.23-20.15Q183.38-20.15 181.68-17.15L181.68-17.15Q181.43-16.7 181.23-16.38 181.03-16.05 180.9-15.9 180.78-15.75 180.63-15.75L180.63-15.75Q180.23-15.75 180.23-16.25L180.23-16.25Q180.23-17.25 181.33-19.1 182.43-20.95 183.93-22.38 185.43-23.8 186.63-23.8L186.63-23.8Q187.43-23.8 187.78-23.1 188.13-22.4 188.13-21.35L188.13-21.35Q188.13-19.7 187.33-14.9L187.33-14.9 187.38-14.9Q189.68-18.95 192.43-21.38 195.18-23.8 197.18-23.8L197.18-23.8Q199.28-23.8 199.28-20.85L199.28-20.85Q199.28-19.75 198.83-17.15L198.83-17.15 197.68-11.15Q196.43-4.8 196.43-3.95L196.43-3.95Q196.43-3.6 196.6-3.33 196.78-3.05 197.18-3.05L197.18-3.05Q198.53-3.05 200.28-7.15L200.28-7.15Q200.43-7.7 200.78-7.7L200.78-7.7Q201.08-7.7 201.08-7.1L201.08-7.1Q201.08-6.65 201.03-6.3L201.03-6.3Q200.68-4.5 199.58-2.93 198.48-1.35 197.13-0.43 195.78 0.5 194.68 0.5L194.68 0.5Q193.63 0.5 193.25-0.38 192.88-1.25 192.88-2.3L192.88-2.3Q192.88-4.55 194.13-10.4L194.13-10.4Q195.33-16.1 195.43-18.3L195.43-18.3Q195.48-19.2 195.3-19.58 195.13-19.95 194.48-19.95L194.48-19.95Q192.93-19.95 191.15-17.9 189.38-15.85 187.98-12.88 186.58-9.9 186.13-7.45L186.13-7.45 185.33-3.1Q185.03-1.8 183.73-0.65 182.43 0.5 181.43 0.5L181.43 0.5ZM209.43 0.5Q207.18 0.5 205.85-1.23 204.53-2.95 204.53-6L204.53-6Q204.53-9.7 206.3-13.93 208.08-18.15 210.88-20.98 213.68-23.8 216.53-23.8L216.53-23.8Q219.13-23.8 219.13-20.65L219.13-20.65Q219.13-18.1 217.63-15.65 216.13-13.2 213.6-11.33 211.08-9.45 208.08-8.45L208.08-8.45Q208.08-5.75 208.95-4.55 209.83-3.35 211.53-3.35L211.53-3.35Q213.33-3.35 214.83-4.5 216.33-5.65 217.38-7.65L217.38-7.65Q217.53-7.95 217.68-8.15 217.83-8.35 218.08-8.35L218.08-8.35Q218.48-8.35 218.48-7.75L218.48-7.75Q218.48-6.4 217.13-4.4 215.78-2.4 213.68-0.95 211.58 0.5 209.43 0.5L209.43 0.5ZM209.68-11.1Q210.98-11.1 212.45-12.03 213.93-12.95 214.93-14.55 215.93-16.15 215.93-18.15L215.93-18.15Q215.93-20.5 214.28-20.5L214.28-20.5Q212.93-20.5 211.7-19.05 210.48-17.6 209.65-15.45 208.83-13.3 208.53-11.3L208.53-11.3Q208.83-11.1 209.68-11.1L209.68-11.1ZM224.07 19.95Q222.12 19.95 220.77 18.88 219.42 17.8 218.77 16.15 218.12 14.5 218.12 12.75L218.12 12.75Q218.12 11.1 218.72 10.13 219.32 9.15 220.02 8.8 220.72 8.45 221.07 8.45L221.07 8.45Q221.32 8.45 221.32 8.95L221.32 8.95Q221.32 16.75 226.32 16.75L226.32 16.75Q229.87 16.75 231.87 12.5L231.87 12.5Q232.62 10.85 233.27 8.35 233.92 5.85 235.02 0.55L235.02 0.55Q235.47-1.6 235.52-1.9L235.52-1.9 237.02-8.8 236.97-8.8Q235.77-6.3 234.12-4.17 232.47-2.05 230.87-0.78 229.27 0.5 228.27 0.5L228.27 0.5Q227.17 0.5 226.75-1.18 226.32-2.85 226.37-5.25L226.37-5.25 226.77-17.75Q226.82-18.15 226.82-18.85L226.82-18.85Q226.82-19.65 226.65-20.05 226.47-20.45 225.97-20.45L225.97-20.45Q225.32-20.45 224.52-19.6 223.72-18.75 223.12-17.4L223.12-17.4Q222.82-16.55 222.47-16.55L222.47-16.55Q222.07-16.55 222.07-17.15L222.07-17.15Q222.07-18.4 222.97-20 223.87-21.6 225.25-22.7 226.62-23.8 227.87-23.8L227.87-23.8Q229.27-23.8 229.77-22.4 230.27-21 230.27-18.6L230.27-18.6 230.22-17 229.77-8.75 229.72-7.1Q229.72-5.5 229.95-4.8 230.17-4.1 230.77-4.1L230.77-4.1Q231.87-4.1 233.37-6.2 234.87-8.3 236.22-11.35 237.57-14.4 238.22-17.05L238.22-17.05 238.97-20.1Q239.42-21.95 240.7-22.88 241.97-23.8 243.02-23.8L243.02-23.8Q243.42-23.8 243.42-23.55L243.42-23.55Q243.42-23.3 243.25-22.85 243.07-22.4 242.97-22.2L242.97-22.2Q242.57-21.15 242.27-19.93 241.97-18.7 241.67-17L241.67-17 239.02-2.8 238.52 0.05Q237.92 3.55 237.42 5.58 236.92 7.6 236.02 9.58 235.12 11.55 233.47 13.65L233.47 13.65Q231.22 16.65 228.77 18.3 226.32 19.95 224.07 19.95L224.07 19.95Z" opacity="1" transform="matrix(1,0,0,1,0,0)" fill="black" class="wordmark-text-0" id="SvgjsPath4540" stroke-width="5" stroke="black" stroke-linejoin="round"></path></svg></g></svg></g></svg></g></svg></g><g transform="matrix(1,0,0,1,0,17.00671909256633)"><svg viewBox="0 0 75.96999403616945 76.06241354668828" height="76.06241354668828" width="75.96999403616945"><g><svg xmlns="http://www.w3.org/2000/svg" xmlns:xlink="http://www.w3.org/1999/xlink" version="1.1" x="0" y="0" viewBox="10.599998474121094 14.99999713897705 82.19999694824219 82.29999542236328" enable-background="new 0 0 100 100" xml:space="preserve" height="76.06241354668828" width="75.96999403616945" class="icon-icon-0" data-fill-palette-color="accent" id="SvgjsSvg4539"><g fill="black" stroke-width="5" stroke="black" stroke-linejoin="round"><path d="M78.5 78.1c0-0.7 0.1-1.8-0.6-2.5-0.4-0.4-1.2-0.8-2.4-0.4-0.4 0.1-0.6 0.5-0.6 0.8 0 0.7-0.4 2.2-0.9 2.6-1.4 0.9-2.5 2.5-2.5 3.7 0 0.2 0 0.4-0.1 0.7-0.1 0.6-0.1 1.3 0.1 2 0.4 1.1 1.3 1.9 2.4 1.9 0 0 0.3 0 0.3 0 1.4-0.2 2.4-2.3 2.6-3 0.2-0.8 0.7-1.9 0.9-2.1 0.9-0.8 1-2.6 0.9-3.3C78.5 78.4 78.5 78.2 78.5 78.1zM76.7 81.1c-0.4 0.4-0.9 1.8-1 2.4-0.1 0.6-0.9 2-1.5 2.1-0.1 0-0.1 0-0.1 0 0 0-0.1 0-0.1 0-0.6 0-1-0.4-1.2-1.1-0.2-0.7 0-1.5 0-2.2 0-0.7 0.7-1.9 1.8-2.6 1-0.7 1.2-3 1.2-3 2-0.7 1.5 1.6 1.5 2.2C77.3 79.4 77.1 80.6 76.7 81.1z" fill="black" stroke-width="5" stroke="black" stroke-linejoin="round"></path><g fill="black" stroke-width="5" stroke="black" stroke-linejoin="round"><path d="M77.5 39.3c0 0.4 0.1 0.7 0.4 1 0.4 0.4 1 0.6 1.8 0.6 0.2 0 0.4 0 0.5 0 0 0 2.3-0.4 2.5-1.7 0 0 0.2-3.1-1-3.6 0 0-0.3-0.2-0.2-0.6 0 0 0.5-2.9-0.5-3.6-0.2-0.1-0.9-0.5-1.5-0.5-0.5 0-0.9 0.3-1 0.5-0.3 0.5-0.8 1.1-0.9 1.2-1.1 0.6-0.9 2.6-0.7 3.4C77.2 36.8 77.5 38.8 77.5 39.3zM80.7 38.7c-0.2 0.1-0.6 0.2-0.8 0.3-0.1 0-0.4 0-0.6 0-0.1-1-0.4-2.8-0.6-3.5-0.1-0.5-0.1-1.1 0-1.3 0.3-0.2 0.6-0.6 1-1.1 0 0.4 0 1.1-0.1 1.6" fill="black" stroke-width="5" stroke="black" stroke-linejoin="round"></path><path d="M92.7 52.6c-1.5-18.1-14.8-32.9-32.2-36.7-1-0.2-2-0.4-3.1-0.5-0.6-0.1-1.3-0.2-1.9-0.2-0.3 0-0.7-0.1-1-0.1-0.9-0.1-1.8-0.1-2.7-0.1-0.3 0-0.6 0-0.9 0-0.7 0-1.4 0-2.1 0.1-0.8 0.1-1.7 0.1-2.5 0.3-0.4 0.1-0.9 0.1-1.3 0.2-0.3 0.1-0.7 0.1-1 0.2 0 0 0 0 0 0 0 0 0 0 0 0-0.4 0.1-0.8 0.2-1.2 0.2-0.4 0.1-0.8 0.2-1.1 0.3-1.5 0.4-2.9 0.8-4.3 1.3-0.2 0.1-0.4 0.2-0.7 0.3-0.1 0-0.2 0.1-0.2 0.1-0.2 0.1-0.4 0.2-0.7 0.3-0.1 0-0.2 0.1-0.3 0.1-0.7 0.3-1.4 0.6-2.1 1-0.4 0.2-0.7 0.4-1.1 0.6-12.9 6.9-21.7 20.6-21.7 36.2 0 22.7 18.4 41.1 41.1 41.1 21.2 0 38.7-16.1 40.9-36.8 0.1-1.2 0.2-2.5 0.2-3.8 0-0.2 0-0.4 0-0.5C92.8 54.9 92.8 53.7 92.7 52.6zM60.5 18C76 21.5 87.9 34.2 90.4 50.1c-0.2-0.2-0.4-0.3-0.5-0.5-0.5-0.5-1-0.8-1.2-1.2-1.2-1.4-3.9-1.3-5.5-1.2-0.3 0-0.5 0-0.6 0-0.5-0.1-1.9-1.4-3-2.7-0.3-0.3-0.7-0.4-1-0.3l-0.7 0.2c-0.3 0.1-0.5 0.3-0.6 0.6-0.1 0.3-0.1 0.6 0.1 0.8l2.4 4.1c0.2 0.3 0.5 0.5 0.9 0.5l2.8-0.1c0.9 0.5 2.3 1.5 2.1 2.1-0.6 0.6-5.6 3-10.3 5.1-0.6-1.2-1.7-3.5-2.7-6.4-0.6-1.6-2-3.6-3.1-5.1-0.2-0.3-0.6-0.4-0.9-0.4-0.4 0.1-0.7 0.3-0.7 0.7-0.3 1.3-0.2 3 0.4 4.3 0.3 0.6 0.7 1.5 1.2 2.5 0.8 1.7 1.8 3.8 2 4.4 0.2 0.5 0 2.3-0.3 3.7-0.1 0.3 0 0.6 0.2 0.8 0.2 0.2 0.5 0.3 0.8 0.3 5.2-0.5 5.6-1 5.8-1.3 0.1-0.1 0.3-0.2 0.6-0.4-0.1 0.4-0.3 0.9-0.5 1.5l-0.6 1.6c-0.7 2-2.8 4.3-6.3 6.7l-0.2 0.1c-1 0.7-0.8 2.4-0.6 4.5 0.1 0.8 0.2 1.6 0.2 2.1-0.1 0.5-1.2 2.2-6.2 7l-0.7 0.7c-0.8 0.8-1.4 1.9-1.9 2.7-0.3 0.5-0.5 1-0.7 1.1-0.4 0.4-3.1 1.2-4.4 1.2-0.1 0-0.2 0-0.2 0-0.3-0.1-0.7-0.2-0.9-0.2-0.1-0.6-0.6-1.4-1.9-3.6-0.9-1.6-2.5-4.2-2.5-4.9-0.1-1 0.4-1.9 0.9-2.9 0.2-0.4 0.4-0.8 0.6-1.3 0.9-2.1-4.3-11.3-5-11.9-0.8-0.7-2.7-0.8-4.2-0.8-1 0-2.6 0.6-3.4 1-0.6-0.2-2.5-1-8.9-4.5l-0.2-0.1c-0.9-1-0.9-10-0.4-12.3 0.4-1.5 6.3-5.8 7.5-6.4 0.8-0.4 9.6-2.6 10.5-2.7 0.1 0.1 0.2 0.4 0.2 0.7 0.1 0.9 0.5 3.9 2.4 4.4 0.3 0.1 0.6 0.1 0.9 0.1 0.9 0 2.8-0.4 3.6-0.9 0.6 0 1.9 0.2 3.1 0.4 1.8 0.2 3.6 0.5 4.5 0.5 0.3 0 0.5 0 0.7-0.1 0.3-0.1 1.3-0.2 1.9-0.3 0.8-0.1 1.6-0.2 2.1-0.3l0.8-0.2c0.4-0.1 0.7-0.5 0.7-1l-0.3-3c0-0.3-0.1-0.5-0.3-0.6-0.2-0.2-0.4-0.2-0.7-0.2 0 0-0.4 0-1 0-0.6 0-1.1 0-1.5-0.1-0.8-0.2-1.4-0.8-1.8-2 0.4-0.1 1.4-0.3 3.9-0.3l2.5 0c0.4 0 0.8 0 1 0 1-0.1 1.5-0.6 1.8-1 0.5-0.9 0.1-2.1-0.2-2.9-0.8-1.8-6.1-3.4-8.2-3.4 0 0-0.2 0-0.2 0-2.3 0.1-2.8 3-2.9 4.4l-1.1 0.2c-0.4 0.1-0.8 0.4-0.8 0.8 0 0-0.1 0.9-0.6 1.8-0.1 0.1-0.3 0.5-1 0.5 0 0-0.1 0-0.1 0-0.2-0.1-0.7-0.6-0.3-1.9 0.6-1.9-2.6-3.7-5.4-5-0.4-0.2-0.9-0.1-1.1 0.3-0.3 0.3-0.3 0.8 0 1.2l2.5 3.4 0.2 0.6-0.1 0c-0.3 0-0.6 0.1-0.7 0.3-0.1 0.1-0.3 0.3-0.4 0.4 0-0.5 0-0.9-0.2-1.4-1-3.6-4.5-4.1-4.7-4.1-0.3 0-0.5 0-0.7 0.2-0.5 0.4-1.1 0.7-1.3 0.8-0.1 0-0.1 0-0.2 0-0.6-0.1-1.5-0.1-2.1 0.2-1 0.5-1.5 1.5-2.1 2.4-0.2 0.3-0.4 0.6-0.5 0.8-0.2 0.3-0.3 0.6-0.5 1.1-0.2 0.5-1.1 0.8-2.6 0.8-0.9 0-1.8-0.1-2.5-0.2 0-0.8 0-2.3 0-3.5 0.1 0 0.3 0 0.6 0 1 0 2.2 0.1 2.9 0.1 0.4 0 0.6 0 0.7 0 0.5 0 0.9-0.2 1.1-0.6 0.6-0.9 0.1-2.5-0.4-3.7-0.1-0.3-0.4-0.5-0.8-0.6-0.2 0-0.3 0-0.5-0.1 0.7-0.1 1.5-0.1 1.7-0.2 0.6-0.1 1-0.5 1.4-0.9 0.1-0.1 0.3-0.3 0.3-0.3 0.7-0.3 4.4-2 4.8-2.2 0.2-0.1 0.3-0.2 0.4-0.4 0.1-0.2 1-1.7 0.6-3.2-0.1-0.3 0-0.6 0.2-0.8l1.3 1.9c0.2 0.3 0.5 0.4 0.8 0.4l5.6-0.1c0.3 0 0.5-0.1 0.7-0.3 0.1-0.1 0.8-0.9 1.2-2.3 0.1-0.2 0.9-0.6 1.3-0.7C59.5 18.9 60.2 18.6 60.5 18zM62.9 34.9c0.1-0.2 0.2-0.4 0.2-0.6 0-1.1 0.3-3.3 1.3-3.3 2.1 0 6.1 1.6 6.5 2.2 0.4 0.9 0.3 1.2 0.3 1.2 0 0-0.1 0.1-0.3 0.1-0.2 0-0.5 0-0.8 0l-2.5 0C65.2 34.4 63.8 34.5 62.9 34.9zM55.4 34.3c-0.1 0.2-0.1 0.4-0.1 0.6l-0.4-1c0 0 0-0.1-0.1-0.1C55.1 34 55.4 34.2 55.4 34.3zM54 17c-0.1 0.4-0.2 0.8-0.3 0.9-0.1 0.2-0.2 0.2-0.3 0.2-0.4 0.3-1.2-0.4-1.5-1.2C52.6 17 53.3 17 54 17zM41.6 18.3c-0.3 0.2-0.6 0.5-0.8 0.8-0.2 0.3-0.5 0.6-0.7 0.7 0 0-0.2 0.1-0.5 0.1-0.7 0-1.4-0.2-1.4-0.2-0.1-0.1-0.2-0.1-0.3-0.2C38.6 19.1 40 18.7 41.6 18.3zM51.7 95.2c-21.6 0-39.1-17.6-39.1-39.1 0-15.9 9.5-29.6 23.1-35.7 0.1 0.1 0.1 0.1 0.2 0.2 0 0 0.7 0.4 0.8 0.5 0.5 0.6 2.1 0.8 2.8 0.8 0.6 0 1.1-0.1 1.4-0.3 0.6-0.3 1-0.8 1.3-1.2 0.1-0.2 0.3-0.4 0.2-0.4 0.4 0 0.7-0.2 0.9-0.5 0.3-0.4 0.3-1 0.3-1.6 0.2 0 0.5-0.1 0.7-0.1 0.2 0.3 0.4 0.5 0.6 0.7 0.3 0.3 0.8 0.3 1.1 0.1 0.8-0.5 1.8-1 2.7-1.4 0.4 0 0.7-0.1 1.1-0.1 0.6 1.4 2.1 3 3.6 3 0.5 0 1.2-0.2 1.8-0.9 0.4-0.5 0.6-1.3 0.7-2 0.6 0.1 1.3 0.1 2.1 0.3 0 0 0 0 0 0-0.9 0.4-2.1 0.9-2.4 2-0.1 0.5-0.4 1-0.5 1.2l-4.6 0.1-1.5-2.2c-0.3-0.4-0.7-0.5-1.2-0.3-0.9 0.4-2.5 1.6-1.9 3.5 0.1 0.4-0.1 1-0.3 1.4-1.6 0.8-4 1.8-4.4 2-0.5 0.2-0.8 0.6-1 0.8-0.1 0.1-0.3 0.3-0.2 0.3-0.3 0-2.3 0.2-2.8 0.3-0.6 0.1-1.1 0.2-1.4 0.7-0.3 0.5-0.1 1 0 1.2 0 1.1 1.2 1.6 2.5 1.7 0.1 0.4 0.3 0.8 0.3 1.1 0 0 0 0 0 0-0.8-0.1-2-0.1-3-0.1-1 0-2.4 0-2.5 1.2-0.1 2.1 0 5 0 5.1 0 0.4 0.3 0.8 0.7 0.9 0.1 0 1.8 0.4 3.6 0.4 2.4 0 3.9-0.7 4.4-2.1 0 0 0.1-0.2 0.1-0.2 0-0.1 0.1-0.3 0.1-0.4 0.2-0.3 0.4-0.7 0.7-1 0.4-0.7 0.8-1.4 1.3-1.6 0.1 0 0.6 0 1 0 0.2 0 0.4 0.1 0.6 0 0.7-0.1 1.5-0.5 2-0.9 0.7 0.2 2.2 0.8 2.7 2.6 0.1 0.2 0.1 0.6 0.1 1 0 0.9 0.1 1.8 0.9 2.3 0.1 0.1 0.4 0.1 0.5 0.1 0.2 0 0.7 0 2-1.4l1.1 0c0.2 0 0.5-0.1 0.6-0.2 0.4 0.9 1.1 1.4 1.7 1.6 0 0 0.2 0 0.5 0 1.2 0 2.2-0.6 2.7-1.5 0.4-0.7 0.6-1.3 0.7-1.7l1.2-0.2c-0.1 0.1-0.2 0.2-0.3 0.3-0.3 0.4-0.4 0.8-0.2 1.3 0.8 2.5 2.2 3.4 3.3 3.6 0.6 0.1 1.4 0.2 2.2 0.2l0.1 1.3c-0.3 0.1-1.1 0.2-1.8 0.3-1.2 0.1-2 0.2-2.4 0.4-0.7 0-2.6-0.2-4.2-0.5-1.6-0.2-2.9-0.4-3.5-0.4-0.1 0-0.5 0-0.8 0.3-0.2 0.2-1.6 0.6-2.7 0.6-0.2 0-0.4 0-0.5 0-0.3-0.1-0.9-1.4-1-2.8-0.1-1.1-0.8-2.3-2.1-2.3 0 0 0 0 0 0C47.3 37.5 38 39.8 37 40.3c-0.5 0.2-7.8 4.9-8.5 7.7-0.3 1.5-1.2 13 1.2 14.4l0.3 0.1c8 4.4 9.3 4.8 9.9 4.8 0.2 0 0.5-0.1 0.6-0.2 0.4-0.3 1.9-0.9 2.6-0.9 1.5 0 2.7 0.2 2.9 0.3 0.8 1 4.7 8.5 4.5 9.8-0.2 0.4-0.3 0.7-0.5 1.1-0.6 1.1-1.2 2.4-1.1 3.9 0.1 1.1 1.2 3 2.8 5.7 0.6 1.1 1.5 2.6 1.6 2.8-0.2 1.4 1.1 1.6 1.5 1.7 0.2 0 0.4 0.1 0.7 0.2 0.2 0.1 0.5 0.1 0.8 0.1 1.5 0 5-0.9 5.8-1.8 0.3-0.3 0.6-0.9 0.9-1.5 0.4-0.8 1-1.7 1.6-2.3l0.7-0.7c4.9-4.7 6.7-6.9 6.8-8.2 0-0.7-0.1-1.5-0.2-2.4-0.1-0.9-0.3-2.5-0.2-2.7l0.2-0.1c3.8-2.6 6.1-5.2 7-7.6l0.6-1.6c1.1-3.2 1.4-3.8 0.5-4.3-0.2-0.1-0.5-0.2-0.7-0.2-0.7 0-2.4 0.7-3.1 1.5-0.4 0.2-1.8 0.4-3.3 0.6 0.1-0.7 0.2-1.6 0.2-2.3 0.3 0.7 0.5 1 0.6 1.1 0.2 0.4 0.8 0.6 1.2 0.4 11.4-5 11.9-5.9 12-6.3 0.8-1.7-0.7-3.3-2.1-4.3 1.7 0.1 2.1 0.4 2.3 0.6 0.3 0.4 0.8 0.8 1.4 1.4 0.7 0.6 1.5 1.3 2.1 2.1 0.1 1 0.1 2 0.1 3C90.8 77.6 73.3 95.2 51.7 95.2z" fill="black" stroke-width="5" stroke="black" stroke-linejoin="round"></path></g></g></svg></g></svg></g></svg></g></svg></g></svg></g></mask><g mask="url(#4764eec6-f3c1-47bd-a8fb-c080a8c65742)"><g><path xmlns="http://www.w3.org/2000/svg" d="M263.872 99.263h-15.331l-14.947 50.59h29.511c3.066 0 6.26-0.204 9.582-0.613 3.322-0.358 5.621-0.537 6.898-0.537v0c2.3 0 3.449 0.767 3.449 2.3v0c0 2.044-1.456 4.395-4.369 7.052-2.964 2.708-6.873 5.008-11.727 6.898-4.855 1.942-9.965 2.913-15.331 2.913v0h-23.378l-15.33 50.973c-2.811 8.943-6.566 15.892-11.268 20.849-4.752 5.008-9.556 7.512-14.411 7.512v0c-2.044 0-3.066-0.767-3.066-2.3v0c0-1.022 0.383-2.555 1.15-4.599 0.767-2.044 1.661-4.471 2.683-7.281v0l19.163-65.154h-45.608l-14.947 50.973c-2.811 8.943-6.643 15.892-11.497 20.849-4.855 5.008-9.581 7.512-14.181 7.512v0c-2.3 0-3.449-0.767-3.449-2.3v0c0-0.767 0.383-2.121 1.15-4.062 0.767-1.891 1.661-4.497 2.682-7.818v0l19.547-65.154h-21.08c-4.599 0-8.227 0.128-10.884 0.383-2.708 0.256-4.574 0.383-5.596 0.384v0c-1.533 0-2.478-0.204-2.836-0.614-0.409-0.358-0.613-0.92-0.613-1.686v0c0-2.044 1.482-4.344 4.446-6.899 2.913-2.555 6.796-4.803 11.651-6.745 4.855-1.891 9.965-2.836 15.33-2.836v0h14.947l14.947-50.59h-28.744c-3.066 0-6.26 0.179-9.582 0.537-3.322 0.409-5.749 0.613-7.281 0.613v0c-2.3 0-3.449-0.767-3.45-2.3v0c0-2.044 1.482-4.42 4.446-7.128 2.913-2.657 6.796-4.957 11.651-6.899 4.855-1.891 9.965-2.836 15.33-2.836v0h22.996l15.713-52.506c2.811-9.198 6.592-16.301 11.345-21.309 4.701-4.957 9.479-7.435 14.333-7.435v0c2.044 0 3.066 0.767 3.066 2.3v0c0 1.022-0.383 2.555-1.149 4.599-0.767 2.044-1.661 4.471-2.683 7.281v0l-19.93 67.07h45.608l15.713-52.506c2.811-9.198 6.643-16.301 11.498-21.309 4.855-4.957 9.581-7.435 14.181-7.435v0c2.3 0 3.449 0.767 3.449 2.3v0c0 1.022-0.434 2.606-1.303 4.752-0.92 2.197-1.763 4.574-2.53 7.128v0l-19.929 67.07h21.462c4.599 0 8.253-0.128 10.961-0.383 2.657-0.256 4.497-0.383 5.519-0.383v0c2.555 0 3.833 0.767 3.833 2.299v0c0 2.044-1.533 4.344-4.599 6.899-3.066 2.555-7.026 4.778-11.881 6.669-4.855 1.942-9.965 2.913-15.33 2.912zM212.515 149.853l14.947-50.59h-45.607l-14.947 50.59z" fill="#ffffff" fill-rule="nonzero" stroke="none" stroke-width="1" stroke-linecap="butt" stroke-linejoin="miter" stroke-miterlimit="10" stroke-dasharray="" stroke-dashoffset="0" font-family="none" font-weight="none" font-size="none" text-anchor="none" style="mix-blend-mode: normal" data-fill-palette-color="tertiary"></path></g></g><g transform="matrix(1,0,0,1,0,78.84397212794605)"><svg viewBox="0 0 395.52 89.51205574410788" height="89.51205574410788" width="395.52"><g><svg viewBox="0 0 395.52 89.51205574410788" height="89.51205574410788" width="395.52"><g><svg viewBox="0 0 486.38365541990856 110.07585173182093" height="89.51205574410788" width="395.52"><g transform="matrix(1,0,0,1,90.86365541990857,0)"><svg viewBox="0 0 395.52 110.07585173182093" height="110.07585173182093" width="395.52"><g id="textblocktransform"><svg viewBox="0 0 395.52 110.07585173182093" height="110.07585173182093" width="395.52" id="textblock"><g><svg viewBox="0 0 395.52 110.07585173182093" height="110.07585173182093" width="395.52"><g transform="matrix(1,0,0,1,0,0)"><svg width="395.52" viewBox="-1.399999976158142 -46.75 247.8199920654297 69.70000076293945" height="110.07585173182093" data-palette-color="#ffffff"><path d="M23-18.8L21-18.8 19.05-12.2 22.9-12.2Q23.5-12.2 24.15-12.28 24.8-12.35 25.05-12.35L25.05-12.35Q25.5-12.35 25.5-12.05L25.5-12.05Q25.5-11.65 24.93-11.13 24.35-10.6 23.4-10.23 22.45-9.85 21.4-9.85L21.4-9.85 18.35-9.85 16.35-3.2Q15.8-1.45 14.88-0.48 13.95 0.5 13 0.5L13 0.5Q12.6 0.5 12.6 0.2L12.6 0.2Q12.6 0 12.75-0.4 12.9-0.8 13.1-1.35L13.1-1.35 15.6-9.85 9.65-9.85 7.7-3.2Q7.15-1.45 6.2-0.48 5.25 0.5 4.35 0.5L4.35 0.5Q3.9 0.5 3.9 0.2L3.9 0.2Q3.9 0.05 4.05-0.33 4.2-0.7 4.4-1.35L4.4-1.35 6.95-9.85 4.2-9.85Q3.3-9.85 2.78-9.8 2.25-9.75 2.05-9.75L2.05-9.75Q1.75-9.75 1.68-9.83 1.6-9.9 1.6-10.05L1.6-10.05Q1.6-10.45 2.18-10.95 2.75-11.45 3.7-11.83 4.65-12.2 5.7-12.2L5.7-12.2 7.65-12.2 9.6-18.8 5.85-18.8Q5.25-18.8 4.6-18.73 3.95-18.65 3.65-18.65L3.65-18.65Q3.2-18.65 3.2-18.95L3.2-18.95Q3.2-19.35 3.78-19.88 4.35-20.4 5.3-20.78 6.25-21.15 7.3-21.15L7.3-21.15 10.3-21.15 12.35-28Q12.9-29.8 13.83-30.78 14.75-31.75 15.7-31.75L15.7-31.75Q16.1-31.75 16.1-31.45L16.1-31.45Q16.1-31.25 15.95-30.85 15.8-30.45 15.6-29.9L15.6-29.9 13-21.15 18.95-21.15 21-28Q21.55-29.8 22.5-30.78 23.45-31.75 24.35-31.75L24.35-31.75Q24.8-31.75 24.8-31.45L24.8-31.45Q24.8-31.25 24.63-30.83 24.45-30.4 24.3-29.9L24.3-29.9 21.7-21.15 24.5-21.15Q25.4-21.15 25.93-21.2 26.45-21.25 26.65-21.25L26.65-21.25Q27.15-21.25 27.15-20.95L27.15-20.95Q27.15-20.55 26.55-20.05 25.95-19.55 25-19.18 24.05-18.8 23-18.8L23-18.8ZM16.3-12.2L18.25-18.8 12.3-18.8 10.35-12.2 16.3-12.2ZM34.7 0.5Q32.45 0.5 30.85-0.43 29.25-1.35 28.42-2.65 27.6-3.95 27.5-5.1L27.5-5.1Q27.5-6.1 28.05-7.15 28.6-8.2 29.35-8.9 30.1-9.6 30.5-9.6L30.5-9.6Q30.75-9.6 30.75-9.3L30.75-9.3Q31-6.55 32.25-4.28 33.5-2 36.75-2L36.75-2Q39.35-2 40.9-3.6 42.45-5.2 42.45-8.05L42.45-8.05Q42.45-9.75 41.8-11.2 41.15-12.65 39.65-14.45L39.65-14.45 34.75-20.25Q33.95-21.3 33.5-22.43 33.05-23.55 33.05-25.15L33.05-25.15Q33.05-27.75 34.25-30.05 35.45-32.35 37.75-33.77 40.05-35.2 43.1-35.2L43.1-35.2Q45.6-35.2 47.2-34.18 48.8-33.15 48.8-31.25L48.8-31.25Q48.8-29.8 47.6-27.9L47.6-27.9Q47.15-27.15 46.6-27.15L46.6-27.15Q46.2-27.15 46.07-27.53 45.95-27.9 45.85-28.9L45.85-28.9Q45.7-32.9 41.55-32.9L41.55-32.9Q39.05-32.9 37.65-31.63 36.25-30.35 36.25-28.15L36.25-28.15Q36.25-25.95 38.1-23.7L38.1-23.7 42.9-18.15Q46-14.5 46-10.5L46-10.5Q46-7.6 44.37-5.08 42.75-2.55 40.12-1.03 37.5 0.5 34.7 0.5L34.7 0.5ZM52.7 0.5Q50.15 0.5 50.15-4.35L50.15-4.35Q50.15-9 52.17-13.53 54.2-18.05 57.65-20.93 61.09-23.8 65.09-23.8L65.09-23.8Q67.15-23.8 68.65-23.15L68.65-23.15Q68-20.6 67.75-19.4L67.75-19.4 66.7-14Q65.3-7.6 65-5.15L65-5.15Q64.95-4.8 64.95-4.3L64.95-4.3Q64.95-3.2 65.59-3.2L65.59-3.2Q66.4-3.2 67.09-4.23 67.8-5.25 68.7-7.15L68.7-7.15Q68.75-7.2 68.87-7.45 69-7.7 69.2-7.7L69.2-7.7Q69.5-7.7 69.5-7.1L69.5-7.1 69.4-6.3Q69.05-4.65 67.97-3.05 66.9-1.45 65.57-0.48 64.25 0.5 63.2 0.5L63.2 0.5Q61.45 0.5 61.45-2.35L61.45-2.35Q61.45-3.45 61.7-4.6L61.7-4.6 62.55-8.95 62.5-8.95Q60.09-4.75 57.37-2.13 54.65 0.5 52.7 0.5L52.7 0.5ZM55.05-3.6Q56.45-3.6 58.27-5.78 60.09-7.95 61.67-11.1 63.25-14.25 63.84-16.75L63.84-16.75 64.65-19.95Q63.15-20.95 61.5-20.95L61.5-20.95Q59.34-20.95 57.57-18.48 55.8-16 54.8-12.48 53.8-8.95 53.8-6.1L53.8-6.1Q53.8-4.85 54.07-4.23 54.34-3.6 55.05-3.6L55.05-3.6ZM65.34 19.95Q64.64 19.95 64.17 19.78 63.69 19.6 63.14 19.05L63.14 19.05Q62.19 18.1 62.19 17.5L62.19 17.5Q62.19 17.25 62.59 17.25L62.59 17.25Q63.14 17.25 63.79 17.4L63.79 17.4Q65.79 17.75 66.79 17.75L66.79 17.75Q68.94 17.75 70.32 16.55 71.69 15.35 72.57 12.78 73.44 10.2 74.09 5.75L74.09 5.75 77.99-20.35 75.34-20.35Q73.94-20.35 73.24-20.03 72.54-19.7 72.44-19.7L72.44-19.7Q72.14-19.7 72.14-20.1L72.14-20.1Q72.14-20.55 72.44-21L72.44-21Q73.04-22 74.04-22.65 75.04-23.3 76.34-23.3L76.34-23.3 78.44-23.3 78.49-23.85Q79.49-29.1 80.77-32.83 82.04-36.55 84.19-39.25L84.19-39.25Q85.99-41.5 87.64-42.25 89.29-43 91.34-43.35L91.34-43.35Q92.44-43.55 92.84-43.65 93.24-43.75 93.39-43.75L93.39-43.75Q93.64-43.75 93.64-43.5L93.64-43.5Q93.64-42.9 92.64-41.95L92.64-41.95Q92.14-41.4 91.72-41.25 91.29-41.1 90.54-41.1L90.54-41.1Q89.09-41.05 87.99-40.43 86.89-39.8 85.94-38.5L85.94-38.5Q84.49-36.4 83.64-33.02 82.79-29.65 81.99-24.85L81.99-24.85 81.74-23.3 84.44-23.3Q85.79-23.3 86.52-23.63 87.24-23.95 87.39-23.95L87.39-23.95Q87.69-23.95 87.69-23.55L87.69-23.55Q87.69-23.25 87.39-22.65L87.39-22.65Q85.99-20.35 83.49-20.35L83.49-20.35 81.34-20.35 77.94 2.75Q75.34 19.95 65.34 19.95L65.34 19.95ZM91.34 0.5Q89.09 0.5 87.77-1.23 86.44-2.95 86.44-6L86.44-6Q86.44-9.7 88.22-13.93 89.99-18.15 92.79-20.98 95.59-23.8 98.44-23.8L98.44-23.8Q101.04-23.8 101.04-20.65L101.04-20.65Q101.04-18.1 99.54-15.65 98.04-13.2 95.52-11.33 92.99-9.45 89.99-8.45L89.99-8.45Q89.99-5.75 90.87-4.55 91.74-3.35 93.44-3.35L93.44-3.35Q95.24-3.35 96.74-4.5 98.24-5.65 99.29-7.65L99.29-7.65Q99.44-7.95 99.59-8.15 99.74-8.35 99.99-8.35L99.99-8.35Q100.39-8.35 100.39-7.75L100.39-7.75Q100.39-6.4 99.04-4.4 97.69-2.4 95.59-0.95 93.49 0.5 91.34 0.5L91.34 0.5ZM91.59-11.1Q92.89-11.1 94.37-12.03 95.84-12.95 96.84-14.55 97.84-16.15 97.84-18.15L97.84-18.15Q97.84-20.5 96.19-20.5L96.19-20.5Q94.84-20.5 93.62-19.05 92.39-17.6 91.57-15.45 90.74-13.3 90.44-11.3L90.44-11.3Q90.74-11.1 91.59-11.1L91.59-11.1ZM110.69-26.65Q110.19-26.65 110.24-27.15L110.24-27.15 110.84-30.65Q111.09-32.1 111.91-32.88 112.74-33.65 113.99-33.65L113.99-33.65 114.19-33.65Q114.49-33.65 114.56-33.55 114.64-33.45 114.59-33.15L114.59-33.15 114.04-29.7Q113.84-28.3 112.99-27.48 112.14-26.65 110.89-26.65L110.89-26.65 110.69-26.65ZM97.29 19.95Q94.94 19.95 93.39 18.95 91.84 17.95 91.09 16.55 90.34 15.15 90.34 13.95L90.34 13.95Q90.34 12.75 91.11 11.75 91.89 10.75 92.99 10.35L92.99 10.35Q93.29 10.25 93.34 10.25L93.34 10.25Q93.49 10.25 93.54 10.4 93.59 10.55 93.59 10.8L93.59 10.8Q93.79 14.1 95.04 15.93 96.29 17.75 98.74 17.75L98.74 17.75Q100.59 17.75 101.79 16.53 102.99 15.3 103.76 12.73 104.54 10.15 105.24 5.7L105.24 5.7 108.84-17.8Q109.04-19.1 109.04-19.4L109.04-19.4Q109.04-20.15 108.59-20.15L108.59-20.15Q107.99-20.15 107.14-19.2 106.29-18.25 105.29-16.2L105.29-16.2Q105.09-15.6 104.79-15.6L104.79-15.6Q104.49-15.6 104.49-16.1L104.49-16.1Q104.49-17.3 105.56-19.18 106.64-21.05 108.21-22.43 109.79-23.8 111.14-23.8L111.14-23.8Q112.69-23.8 112.69-21.6L112.69-21.6Q112.69-20.55 112.39-18.85L112.39-18.85 109.14 2.75Q107.89 11.2 104.89 15.58 101.89 19.95 97.29 19.95L97.29 19.95ZM120.69 0.5Q118.59 0.5 117.51-1.13 116.44-2.75 116.44-5.65L116.44-5.65Q116.44-9.7 118.39-13.95 120.34-18.2 123.21-21 126.09-23.8 128.69-23.8L128.69-23.8Q130.64-23.8 131.69-22.08 132.74-20.35 132.74-17.55L132.74-17.55Q132.74-13.8 130.91-9.55 129.09-5.3 126.29-2.4 123.49 0.5 120.69 0.5L120.69 0.5ZM123.14-2.8Q124.79-2.8 126.14-4.48 127.49-6.15 128.29-8.93 129.09-11.7 129.09-14.8L129.09-14.8Q129.09-20.5 126.14-20.5L126.14-20.5Q124.29-20.5 122.91-18.5 121.54-16.5 120.81-13.63 120.09-10.75 120.09-8.25L120.09-8.25Q120.09-5.85 120.81-4.33 121.54-2.8 123.14-2.8L123.14-2.8ZM140.33 0.5Q138.23 0.5 138.23-2.65L138.23-2.65Q138.23-4.2 138.73-7.05L138.73-7.05 140.43-17.35Q140.63-19.15 140.63-19.4L140.63-19.4Q140.63-20.15 140.23-20.15L140.23-20.15Q139.08-20.15 137.53-17.15L137.53-17.15Q137.43-16.95 137.21-16.48 136.98-16 136.83-15.88 136.68-15.75 136.53-15.75L136.53-15.75Q136.43-15.75 136.33-15.93 136.23-16.1 136.23-16.35L136.23-16.35Q136.23-17.35 137.26-19.18 138.28-21 139.78-22.4 141.28-23.8 142.63-23.8L142.63-23.8Q143.43-23.8 143.91-23.13 144.38-22.45 144.38-21.3L144.38-21.3Q144.38-20.55 144.28-20.15L144.28-20.15 141.93-5.4Q141.83-4.7 141.83-4.5L141.83-4.5Q141.83-3.45 142.63-3.45L142.63-3.45Q144.28-3.45 146.21-5.68 148.13-7.9 149.61-11 151.08-14.1 151.53-16.45L151.53-16.45 152.23-20.1Q152.63-21.9 153.86-22.85 155.08-23.8 156.13-23.8L156.13-23.8Q156.53-23.8 156.53-23.55L156.53-23.55Q156.53-23.4 156.33-22.98 156.13-22.55 156.03-21.95L156.03-21.95Q155.33-18.85 153.28-7.55L153.28-7.55 152.98-5.95Q152.63-4.2 152.63-3.8L152.63-3.8Q152.63-3.1 153.08-3.1L153.08-3.1Q153.88-3.1 154.86-4.38 155.83-5.65 156.43-7.15L156.43-7.15Q156.73-7.7 156.93-7.7L156.93-7.7Q157.23-7.7 157.23-7.25L157.23-7.25Q157.23-6.7 157.13-6.3L157.13-6.3Q156.78-4.5 155.73-2.95 154.68-1.4 153.38-0.45 152.08 0.5 150.98 0.5L150.98 0.5Q149.03 0.5 149.13-2.6L149.13-2.6Q149.23-3.95 149.73-6.25L149.73-6.25 150.18-8.7 150.13-8.7Q147.53-4.55 144.83-2.02 142.13 0.5 140.33 0.5L140.33 0.5ZM162.23 0.5Q162.03 0.5 161.91 0.43 161.78 0.35 161.78 0.25L161.78 0.25Q161.78 0.1 162.08-0.4 162.38-0.9 162.53-1.8L162.53-1.8Q162.73-2.85 162.88-3.73 163.03-4.6 163.18-5.35L163.18-5.35Q164.43-12.2 164.86-14.93 165.28-17.65 165.23-18.9L165.23-18.9Q165.23-19.55 165.13-19.85 165.03-20.15 164.68-20.15L164.68-20.15Q164.23-20.15 163.53-19.4 162.83-18.65 162.23-17.65L162.23-17.65Q161.98-17.2 161.78-16.88 161.58-16.55 161.46-16.4 161.33-16.25 161.18-16.25L161.18-16.25Q160.98-16.25 160.88-16.4 160.78-16.55 160.78-16.8L160.78-16.8Q160.78-17.75 161.86-19.45 162.93-21.15 164.41-22.48 165.88-23.8 167.03-23.8L167.03-23.8Q167.98-23.8 168.36-23.05 168.73-22.3 168.73-20.7L168.73-20.7Q168.73-18.5 167.78-14.75L167.78-14.75 167.88-14.75Q172.63-23.8 176.68-23.8L176.68-23.8Q177.73-23.8 178.31-23.23 178.88-22.65 178.88-21.6L178.88-21.6Q178.88-20.5 178.41-19.35 177.93-18.2 177.26-17.45 176.58-16.7 176.03-16.7L176.03-16.7Q175.68-16.7 175.78-17.15L175.78-17.15Q175.93-17.85 175.93-18.25L175.93-18.25Q175.93-19.45 174.63-19.45L174.63-19.45Q173.08-19.45 171.53-17.65 169.98-15.85 168.81-13.25 167.63-10.65 167.18-8.5L167.18-8.5Q166.58-6.2 166.43-3.7L166.43-3.7Q166.33-2.75 165.56-1.78 164.78-0.8 163.78-0.15 162.78 0.5 162.23 0.5L162.23 0.5ZM181.43 0.5Q180.98 0.5 180.98 0.2L180.98 0.2Q180.98 0 181.2-0.68 181.43-1.35 181.83-3L181.83-3Q182.83-7.15 184.23-16.85L184.23-16.85Q184.53-18.75 184.53-19.5L184.53-19.5Q184.53-20.15 184.23-20.15L184.23-20.15Q183.38-20.15 181.68-17.15L181.68-17.15Q181.43-16.7 181.23-16.38 181.03-16.05 180.9-15.9 180.78-15.75 180.63-15.75L180.63-15.75Q180.23-15.75 180.23-16.25L180.23-16.25Q180.23-17.25 181.33-19.1 182.43-20.95 183.93-22.38 185.43-23.8 186.63-23.8L186.63-23.8Q187.43-23.8 187.78-23.1 188.13-22.4 188.13-21.35L188.13-21.35Q188.13-19.7 187.33-14.9L187.33-14.9 187.38-14.9Q189.68-18.95 192.43-21.38 195.18-23.8 197.18-23.8L197.18-23.8Q199.28-23.8 199.28-20.85L199.28-20.85Q199.28-19.75 198.83-17.15L198.83-17.15 197.68-11.15Q196.43-4.8 196.43-3.95L196.43-3.95Q196.43-3.6 196.6-3.33 196.78-3.05 197.18-3.05L197.18-3.05Q198.53-3.05 200.28-7.15L200.28-7.15Q200.43-7.7 200.78-7.7L200.78-7.7Q201.08-7.7 201.08-7.1L201.08-7.1Q201.08-6.65 201.03-6.3L201.03-6.3Q200.68-4.5 199.58-2.93 198.48-1.35 197.13-0.43 195.78 0.5 194.68 0.5L194.68 0.5Q193.63 0.5 193.25-0.38 192.88-1.25 192.88-2.3L192.88-2.3Q192.88-4.55 194.13-10.4L194.13-10.4Q195.33-16.1 195.43-18.3L195.43-18.3Q195.48-19.2 195.3-19.58 195.13-19.95 194.48-19.95L194.48-19.95Q192.93-19.95 191.15-17.9 189.38-15.85 187.98-12.88 186.58-9.9 186.13-7.45L186.13-7.45 185.33-3.1Q185.03-1.8 183.73-0.65 182.43 0.5 181.43 0.5L181.43 0.5ZM209.43 0.5Q207.18 0.5 205.85-1.23 204.53-2.95 204.53-6L204.53-6Q204.53-9.7 206.3-13.93 208.08-18.15 210.88-20.98 213.68-23.8 216.53-23.8L216.53-23.8Q219.13-23.8 219.13-20.65L219.13-20.65Q219.13-18.1 217.63-15.65 216.13-13.2 213.6-11.33 211.08-9.45 208.08-8.45L208.08-8.45Q208.08-5.75 208.95-4.55 209.83-3.35 211.53-3.35L211.53-3.35Q213.33-3.35 214.83-4.5 216.33-5.65 217.38-7.65L217.38-7.65Q217.53-7.95 217.68-8.15 217.83-8.35 218.08-8.35L218.08-8.35Q218.48-8.35 218.48-7.75L218.48-7.75Q218.48-6.4 217.13-4.4 215.78-2.4 213.68-0.95 211.58 0.5 209.43 0.5L209.43 0.5ZM209.68-11.1Q210.98-11.1 212.45-12.03 213.93-12.95 214.93-14.55 215.93-16.15 215.93-18.15L215.93-18.15Q215.93-20.5 214.28-20.5L214.28-20.5Q212.93-20.5 211.7-19.05 210.48-17.6 209.65-15.45 208.83-13.3 208.53-11.3L208.53-11.3Q208.83-11.1 209.68-11.1L209.68-11.1ZM224.07 19.95Q222.12 19.95 220.77 18.88 219.42 17.8 218.77 16.15 218.12 14.5 218.12 12.75L218.12 12.75Q218.12 11.1 218.72 10.13 219.32 9.15 220.02 8.8 220.72 8.45 221.07 8.45L221.07 8.45Q221.32 8.45 221.32 8.95L221.32 8.95Q221.32 16.75 226.32 16.75L226.32 16.75Q229.87 16.75 231.87 12.5L231.87 12.5Q232.62 10.85 233.27 8.35 233.92 5.85 235.02 0.55L235.02 0.55Q235.47-1.6 235.52-1.9L235.52-1.9 237.02-8.8 236.97-8.8Q235.77-6.3 234.12-4.17 232.47-2.05 230.87-0.78 229.27 0.5 228.27 0.5L228.27 0.5Q227.17 0.5 226.75-1.18 226.32-2.85 226.37-5.25L226.37-5.25 226.77-17.75Q226.82-18.15 226.82-18.85L226.82-18.85Q226.82-19.65 226.65-20.05 226.47-20.45 225.97-20.45L225.97-20.45Q225.32-20.45 224.52-19.6 223.72-18.75 223.12-17.4L223.12-17.4Q222.82-16.55 222.47-16.55L222.47-16.55Q222.07-16.55 222.07-17.15L222.07-17.15Q222.07-18.4 222.97-20 223.87-21.6 225.25-22.7 226.62-23.8 227.87-23.8L227.87-23.8Q229.27-23.8 229.77-22.4 230.27-21 230.27-18.6L230.27-18.6 230.22-17 229.77-8.75 229.72-7.1Q229.72-5.5 229.95-4.8 230.17-4.1 230.77-4.1L230.77-4.1Q231.87-4.1 233.37-6.2 234.87-8.3 236.22-11.35 237.57-14.4 238.22-17.05L238.22-17.05 238.97-20.1Q239.42-21.95 240.7-22.88 241.97-23.8 243.02-23.8L243.02-23.8Q243.42-23.8 243.42-23.55L243.42-23.55Q243.42-23.3 243.25-22.85 243.07-22.4 242.97-22.2L242.97-22.2Q242.57-21.15 242.27-19.93 241.97-18.7 241.67-17L241.67-17 239.02-2.8 238.52 0.05Q237.92 3.55 237.42 5.58 236.92 7.6 236.02 9.58 235.12 11.55 233.47 13.65L233.47 13.65Q231.22 16.65 228.77 18.3 226.32 19.95 224.07 19.95L224.07 19.95Z" opacity="1" transform="matrix(1,0,0,1,0,0)" fill="#ffffff" class="wordmark-text-0" data-fill-palette-color="primary" id="text-0"></path></svg></g></svg></g></svg></g></svg></g><g transform="matrix(1,0,0,1,0,17.00671909256633)"><svg viewBox="0 0 75.96999403616945 76.06241354668828" height="76.06241354668828" width="75.96999403616945"><g><svg xmlns="http://www.w3.org/2000/svg" xmlns:xlink="http://www.w3.org/1999/xlink" version="1.1" x="0" y="0" viewBox="10.599998474121094 14.99999713897705 82.19999694824219 82.29999542236328" enable-background="new 0 0 100 100" xml:space="preserve" height="76.06241354668828" width="75.96999403616945" class="icon-icon-0" data-fill-palette-color="accent" id="icon-0"><g fill="#ffffff" data-fill-palette-color="accent"><path d="M78.5 78.1c0-0.7 0.1-1.8-0.6-2.5-0.4-0.4-1.2-0.8-2.4-0.4-0.4 0.1-0.6 0.5-0.6 0.8 0 0.7-0.4 2.2-0.9 2.6-1.4 0.9-2.5 2.5-2.5 3.7 0 0.2 0 0.4-0.1 0.7-0.1 0.6-0.1 1.3 0.1 2 0.4 1.1 1.3 1.9 2.4 1.9 0 0 0.3 0 0.3 0 1.4-0.2 2.4-2.3 2.6-3 0.2-0.8 0.7-1.9 0.9-2.1 0.9-0.8 1-2.6 0.9-3.3C78.5 78.4 78.5 78.2 78.5 78.1zM76.7 81.1c-0.4 0.4-0.9 1.8-1 2.4-0.1 0.6-0.9 2-1.5 2.1-0.1 0-0.1 0-0.1 0 0 0-0.1 0-0.1 0-0.6 0-1-0.4-1.2-1.1-0.2-0.7 0-1.5 0-2.2 0-0.7 0.7-1.9 1.8-2.6 1-0.7 1.2-3 1.2-3 2-0.7 1.5 1.6 1.5 2.2C77.3 79.4 77.1 80.6 76.7 81.1z" fill="#ffffff" data-fill-palette-color="accent"></path><g fill="#ffffff" data-fill-palette-color="accent"><path d="M77.5 39.3c0 0.4 0.1 0.7 0.4 1 0.4 0.4 1 0.6 1.8 0.6 0.2 0 0.4 0 0.5 0 0 0 2.3-0.4 2.5-1.7 0 0 0.2-3.1-1-3.6 0 0-0.3-0.2-0.2-0.6 0 0 0.5-2.9-0.5-3.6-0.2-0.1-0.9-0.5-1.5-0.5-0.5 0-0.9 0.3-1 0.5-0.3 0.5-0.8 1.1-0.9 1.2-1.1 0.6-0.9 2.6-0.7 3.4C77.2 36.8 77.5 38.8 77.5 39.3zM80.7 38.7c-0.2 0.1-0.6 0.2-0.8 0.3-0.1 0-0.4 0-0.6 0-0.1-1-0.4-2.8-0.6-3.5-0.1-0.5-0.1-1.1 0-1.3 0.3-0.2 0.6-0.6 1-1.1 0 0.4 0 1.1-0.1 1.6" fill="#ffffff" data-fill-palette-color="accent"></path><path d="M92.7 52.6c-1.5-18.1-14.8-32.9-32.2-36.7-1-0.2-2-0.4-3.1-0.5-0.6-0.1-1.3-0.2-1.9-0.2-0.3 0-0.7-0.1-1-0.1-0.9-0.1-1.8-0.1-2.7-0.1-0.3 0-0.6 0-0.9 0-0.7 0-1.4 0-2.1 0.1-0.8 0.1-1.7 0.1-2.5 0.3-0.4 0.1-0.9 0.1-1.3 0.2-0.3 0.1-0.7 0.1-1 0.2 0 0 0 0 0 0 0 0 0 0 0 0-0.4 0.1-0.8 0.2-1.2 0.2-0.4 0.1-0.8 0.2-1.1 0.3-1.5 0.4-2.9 0.8-4.3 1.3-0.2 0.1-0.4 0.2-0.7 0.3-0.1 0-0.2 0.1-0.2 0.1-0.2 0.1-0.4 0.2-0.7 0.3-0.1 0-0.2 0.1-0.3 0.1-0.7 0.3-1.4 0.6-2.1 1-0.4 0.2-0.7 0.4-1.1 0.6-12.9 6.9-21.7 20.6-21.7 36.2 0 22.7 18.4 41.1 41.1 41.1 21.2 0 38.7-16.1 40.9-36.8 0.1-1.2 0.2-2.5 0.2-3.8 0-0.2 0-0.4 0-0.5C92.8 54.9 92.8 53.7 92.7 52.6zM60.5 18C76 21.5 87.9 34.2 90.4 50.1c-0.2-0.2-0.4-0.3-0.5-0.5-0.5-0.5-1-0.8-1.2-1.2-1.2-1.4-3.9-1.3-5.5-1.2-0.3 0-0.5 0-0.6 0-0.5-0.1-1.9-1.4-3-2.7-0.3-0.3-0.7-0.4-1-0.3l-0.7 0.2c-0.3 0.1-0.5 0.3-0.6 0.6-0.1 0.3-0.1 0.6 0.1 0.8l2.4 4.1c0.2 0.3 0.5 0.5 0.9 0.5l2.8-0.1c0.9 0.5 2.3 1.5 2.1 2.1-0.6 0.6-5.6 3-10.3 5.1-0.6-1.2-1.7-3.5-2.7-6.4-0.6-1.6-2-3.6-3.1-5.1-0.2-0.3-0.6-0.4-0.9-0.4-0.4 0.1-0.7 0.3-0.7 0.7-0.3 1.3-0.2 3 0.4 4.3 0.3 0.6 0.7 1.5 1.2 2.5 0.8 1.7 1.8 3.8 2 4.4 0.2 0.5 0 2.3-0.3 3.7-0.1 0.3 0 0.6 0.2 0.8 0.2 0.2 0.5 0.3 0.8 0.3 5.2-0.5 5.6-1 5.8-1.3 0.1-0.1 0.3-0.2 0.6-0.4-0.1 0.4-0.3 0.9-0.5 1.5l-0.6 1.6c-0.7 2-2.8 4.3-6.3 6.7l-0.2 0.1c-1 0.7-0.8 2.4-0.6 4.5 0.1 0.8 0.2 1.6 0.2 2.1-0.1 0.5-1.2 2.2-6.2 7l-0.7 0.7c-0.8 0.8-1.4 1.9-1.9 2.7-0.3 0.5-0.5 1-0.7 1.1-0.4 0.4-3.1 1.2-4.4 1.2-0.1 0-0.2 0-0.2 0-0.3-0.1-0.7-0.2-0.9-0.2-0.1-0.6-0.6-1.4-1.9-3.6-0.9-1.6-2.5-4.2-2.5-4.9-0.1-1 0.4-1.9 0.9-2.9 0.2-0.4 0.4-0.8 0.6-1.3 0.9-2.1-4.3-11.3-5-11.9-0.8-0.7-2.7-0.8-4.2-0.8-1 0-2.6 0.6-3.4 1-0.6-0.2-2.5-1-8.9-4.5l-0.2-0.1c-0.9-1-0.9-10-0.4-12.3 0.4-1.5 6.3-5.8 7.5-6.4 0.8-0.4 9.6-2.6 10.5-2.7 0.1 0.1 0.2 0.4 0.2 0.7 0.1 0.9 0.5 3.9 2.4 4.4 0.3 0.1 0.6 0.1 0.9 0.1 0.9 0 2.8-0.4 3.6-0.9 0.6 0 1.9 0.2 3.1 0.4 1.8 0.2 3.6 0.5 4.5 0.5 0.3 0 0.5 0 0.7-0.1 0.3-0.1 1.3-0.2 1.9-0.3 0.8-0.1 1.6-0.2 2.1-0.3l0.8-0.2c0.4-0.1 0.7-0.5 0.7-1l-0.3-3c0-0.3-0.1-0.5-0.3-0.6-0.2-0.2-0.4-0.2-0.7-0.2 0 0-0.4 0-1 0-0.6 0-1.1 0-1.5-0.1-0.8-0.2-1.4-0.8-1.8-2 0.4-0.1 1.4-0.3 3.9-0.3l2.5 0c0.4 0 0.8 0 1 0 1-0.1 1.5-0.6 1.8-1 0.5-0.9 0.1-2.1-0.2-2.9-0.8-1.8-6.1-3.4-8.2-3.4 0 0-0.2 0-0.2 0-2.3 0.1-2.8 3-2.9 4.4l-1.1 0.2c-0.4 0.1-0.8 0.4-0.8 0.8 0 0-0.1 0.9-0.6 1.8-0.1 0.1-0.3 0.5-1 0.5 0 0-0.1 0-0.1 0-0.2-0.1-0.7-0.6-0.3-1.9 0.6-1.9-2.6-3.7-5.4-5-0.4-0.2-0.9-0.1-1.1 0.3-0.3 0.3-0.3 0.8 0 1.2l2.5 3.4 0.2 0.6-0.1 0c-0.3 0-0.6 0.1-0.7 0.3-0.1 0.1-0.3 0.3-0.4 0.4 0-0.5 0-0.9-0.2-1.4-1-3.6-4.5-4.1-4.7-4.1-0.3 0-0.5 0-0.7 0.2-0.5 0.4-1.1 0.7-1.3 0.8-0.1 0-0.1 0-0.2 0-0.6-0.1-1.5-0.1-2.1 0.2-1 0.5-1.5 1.5-2.1 2.4-0.2 0.3-0.4 0.6-0.5 0.8-0.2 0.3-0.3 0.6-0.5 1.1-0.2 0.5-1.1 0.8-2.6 0.8-0.9 0-1.8-0.1-2.5-0.2 0-0.8 0-2.3 0-3.5 0.1 0 0.3 0 0.6 0 1 0 2.2 0.1 2.9 0.1 0.4 0 0.6 0 0.7 0 0.5 0 0.9-0.2 1.1-0.6 0.6-0.9 0.1-2.5-0.4-3.7-0.1-0.3-0.4-0.5-0.8-0.6-0.2 0-0.3 0-0.5-0.1 0.7-0.1 1.5-0.1 1.7-0.2 0.6-0.1 1-0.5 1.4-0.9 0.1-0.1 0.3-0.3 0.3-0.3 0.7-0.3 4.4-2 4.8-2.2 0.2-0.1 0.3-0.2 0.4-0.4 0.1-0.2 1-1.7 0.6-3.2-0.1-0.3 0-0.6 0.2-0.8l1.3 1.9c0.2 0.3 0.5 0.4 0.8 0.4l5.6-0.1c0.3 0 0.5-0.1 0.7-0.3 0.1-0.1 0.8-0.9 1.2-2.3 0.1-0.2 0.9-0.6 1.3-0.7C59.5 18.9 60.2 18.6 60.5 18zM62.9 34.9c0.1-0.2 0.2-0.4 0.2-0.6 0-1.1 0.3-3.3 1.3-3.3 2.1 0 6.1 1.6 6.5 2.2 0.4 0.9 0.3 1.2 0.3 1.2 0 0-0.1 0.1-0.3 0.1-0.2 0-0.5 0-0.8 0l-2.5 0C65.2 34.4 63.8 34.5 62.9 34.9zM55.4 34.3c-0.1 0.2-0.1 0.4-0.1 0.6l-0.4-1c0 0 0-0.1-0.1-0.1C55.1 34 55.4 34.2 55.4 34.3zM54 17c-0.1 0.4-0.2 0.8-0.3 0.9-0.1 0.2-0.2 0.2-0.3 0.2-0.4 0.3-1.2-0.4-1.5-1.2C52.6 17 53.3 17 54 17zM41.6 18.3c-0.3 0.2-0.6 0.5-0.8 0.8-0.2 0.3-0.5 0.6-0.7 0.7 0 0-0.2 0.1-0.5 0.1-0.7 0-1.4-0.2-1.4-0.2-0.1-0.1-0.2-0.1-0.3-0.2C38.6 19.1 40 18.7 41.6 18.3zM51.7 95.2c-21.6 0-39.1-17.6-39.1-39.1 0-15.9 9.5-29.6 23.1-35.7 0.1 0.1 0.1 0.1 0.2 0.2 0 0 0.7 0.4 0.8 0.5 0.5 0.6 2.1 0.8 2.8 0.8 0.6 0 1.1-0.1 1.4-0.3 0.6-0.3 1-0.8 1.3-1.2 0.1-0.2 0.3-0.4 0.2-0.4 0.4 0 0.7-0.2 0.9-0.5 0.3-0.4 0.3-1 0.3-1.6 0.2 0 0.5-0.1 0.7-0.1 0.2 0.3 0.4 0.5 0.6 0.7 0.3 0.3 0.8 0.3 1.1 0.1 0.8-0.5 1.8-1 2.7-1.4 0.4 0 0.7-0.1 1.1-0.1 0.6 1.4 2.1 3 3.6 3 0.5 0 1.2-0.2 1.8-0.9 0.4-0.5 0.6-1.3 0.7-2 0.6 0.1 1.3 0.1 2.1 0.3 0 0 0 0 0 0-0.9 0.4-2.1 0.9-2.4 2-0.1 0.5-0.4 1-0.5 1.2l-4.6 0.1-1.5-2.2c-0.3-0.4-0.7-0.5-1.2-0.3-0.9 0.4-2.5 1.6-1.9 3.5 0.1 0.4-0.1 1-0.3 1.4-1.6 0.8-4 1.8-4.4 2-0.5 0.2-0.8 0.6-1 0.8-0.1 0.1-0.3 0.3-0.2 0.3-0.3 0-2.3 0.2-2.8 0.3-0.6 0.1-1.1 0.2-1.4 0.7-0.3 0.5-0.1 1 0 1.2 0 1.1 1.2 1.6 2.5 1.7 0.1 0.4 0.3 0.8 0.3 1.1 0 0 0 0 0 0-0.8-0.1-2-0.1-3-0.1-1 0-2.4 0-2.5 1.2-0.1 2.1 0 5 0 5.1 0 0.4 0.3 0.8 0.7 0.9 0.1 0 1.8 0.4 3.6 0.4 2.4 0 3.9-0.7 4.4-2.1 0 0 0.1-0.2 0.1-0.2 0-0.1 0.1-0.3 0.1-0.4 0.2-0.3 0.4-0.7 0.7-1 0.4-0.7 0.8-1.4 1.3-1.6 0.1 0 0.6 0 1 0 0.2 0 0.4 0.1 0.6 0 0.7-0.1 1.5-0.5 2-0.9 0.7 0.2 2.2 0.8 2.7 2.6 0.1 0.2 0.1 0.6 0.1 1 0 0.9 0.1 1.8 0.9 2.3 0.1 0.1 0.4 0.1 0.5 0.1 0.2 0 0.7 0 2-1.4l1.1 0c0.2 0 0.5-0.1 0.6-0.2 0.4 0.9 1.1 1.4 1.7 1.6 0 0 0.2 0 0.5 0 1.2 0 2.2-0.6 2.7-1.5 0.4-0.7 0.6-1.3 0.7-1.7l1.2-0.2c-0.1 0.1-0.2 0.2-0.3 0.3-0.3 0.4-0.4 0.8-0.2 1.3 0.8 2.5 2.2 3.4 3.3 3.6 0.6 0.1 1.4 0.2 2.2 0.2l0.1 1.3c-0.3 0.1-1.1 0.2-1.8 0.3-1.2 0.1-2 0.2-2.4 0.4-0.7 0-2.6-0.2-4.2-0.5-1.6-0.2-2.9-0.4-3.5-0.4-0.1 0-0.5 0-0.8 0.3-0.2 0.2-1.6 0.6-2.7 0.6-0.2 0-0.4 0-0.5 0-0.3-0.1-0.9-1.4-1-2.8-0.1-1.1-0.8-2.3-2.1-2.3 0 0 0 0 0 0C47.3 37.5 38 39.8 37 40.3c-0.5 0.2-7.8 4.9-8.5 7.7-0.3 1.5-1.2 13 1.2 14.4l0.3 0.1c8 4.4 9.3 4.8 9.9 4.8 0.2 0 0.5-0.1 0.6-0.2 0.4-0.3 1.9-0.9 2.6-0.9 1.5 0 2.7 0.2 2.9 0.3 0.8 1 4.7 8.5 4.5 9.8-0.2 0.4-0.3 0.7-0.5 1.1-0.6 1.1-1.2 2.4-1.1 3.9 0.1 1.1 1.2 3 2.8 5.7 0.6 1.1 1.5 2.6 1.6 2.8-0.2 1.4 1.1 1.6 1.5 1.7 0.2 0 0.4 0.1 0.7 0.2 0.2 0.1 0.5 0.1 0.8 0.1 1.5 0 5-0.9 5.8-1.8 0.3-0.3 0.6-0.9 0.9-1.5 0.4-0.8 1-1.7 1.6-2.3l0.7-0.7c4.9-4.7 6.7-6.9 6.8-8.2 0-0.7-0.1-1.5-0.2-2.4-0.1-0.9-0.3-2.5-0.2-2.7l0.2-0.1c3.8-2.6 6.1-5.2 7-7.6l0.6-1.6c1.1-3.2 1.4-3.8 0.5-4.3-0.2-0.1-0.5-0.2-0.7-0.2-0.7 0-2.4 0.7-3.1 1.5-0.4 0.2-1.8 0.4-3.3 0.6 0.1-0.7 0.2-1.6 0.2-2.3 0.3 0.7 0.5 1 0.6 1.1 0.2 0.4 0.8 0.6 1.2 0.4 11.4-5 11.9-5.9 12-6.3 0.8-1.7-0.7-3.3-2.1-4.3 1.7 0.1 2.1 0.4 2.3 0.6 0.3 0.4 0.8 0.8 1.4 1.4 0.7 0.6 1.5 1.3 2.1 2.1 0.1 1 0.1 2 0.1 3C90.8 77.6 73.3 95.2 51.7 95.2z" fill="#ffffff" data-fill-palette-color="accent"></path></g></g></svg></g></svg></g></svg></g></svg></g></svg></g></svg></g><defs></defs></svg><rect width="395.52" height="247.2" fill="none" stroke="none" visibility="hidden"></rect></g></svg></g></svg>